<?xml version="1.0" encoding="UTF-8" standalone="no"?><svg xmlns="http://www.w3.org/2000/svg" xmlns:xlink="http://www.w3.org/1999/xlink" contentStyleType="text/css" height="702px" preserveAspectRatio="none" style="width:1130px;height:702px;background:#FFFFFF;" version="1.1" viewBox="0 0 1130 702" width="1130px" zoomAndPan="magnify"><defs/><g><!--MD5=[fe654c38a446b8546a70d43a94ce32d6]
class Usuari--><g id="elem_Usuari"><rect codeLine="1" fill="#F1F1F1" height="227.2656" id="Usuari" rx="2.5" ry="2.5" style="stroke:#181818;stroke-width:0.5;" width="249" x="299.5" y="7"/><ellipse cx="398.25" cy="23" fill="#ADD1B2" rx="11" ry="11" style="stroke:#181818;stroke-width:1.0;"/><path d="M401.2188,28.6406 Q400.6406,28.9375 400,29.0781 Q399.3594,29.2344 398.6563,29.2344 Q396.1563,29.2344 394.8281,27.5938 Q393.5156,25.9375 393.5156,22.8125 Q393.5156,19.6875 394.8281,18.0313 Q396.1563,16.375 398.6563,16.375 Q399.3594,16.375 400,16.5313 Q400.6563,16.6875 401.2188,16.9844 L401.2188,19.7031 Q400.5938,19.125 400,18.8594 Q399.4063,18.5781 398.7813,18.5781 Q397.4375,18.5781 396.75,19.6563 Q396.0625,20.7188 396.0625,22.8125 Q396.0625,24.9063 396.75,25.9844 Q397.4375,27.0469 398.7813,27.0469 Q399.4063,27.0469 400,26.7813 Q400.5938,26.5 401.2188,25.9219 L401.2188,28.6406 Z " fill="#000000"/><text fill="#000000" font-family="sans-serif" font-size="14" lengthAdjust="spacing" textLength="43" x="418.75" y="27.8467">Usuari</text><line style="stroke:#181818;stroke-width:0.5;" x1="300.5" x2="547.5" y1="39" y2="39"/><ellipse cx="310.5" cy="52.6484" fill="none" rx="3" ry="3" style="stroke:#038048;stroke-width:1.0;"/><text fill="#000000" font-family="sans-serif" font-size="14" lengthAdjust="spacing" textLength="61" x="319.5" y="55.9951">id: String</text><ellipse cx="310.5" cy="68.9453" fill="none" rx="3" ry="3" style="stroke:#038048;stroke-width:1.0;"/><text fill="#000000" font-family="sans-serif" font-size="14" lengthAdjust="spacing" textLength="80" x="319.5" y="72.292">nom: String</text><ellipse cx="310.5" cy="85.2422" fill="none" rx="3" ry="3" style="stroke:#038048;stroke-width:1.0;"/><text fill="#000000" font-family="sans-serif" font-size="14" lengthAdjust="spacing" textLength="85" x="319.5" y="88.5889">email: String</text><ellipse cx="310.5" cy="101.5391" fill="none" rx="3" ry="3" style="stroke:#038048;stroke-width:1.0;"/><text fill="#000000" font-family="sans-serif" font-size="14" lengthAdjust="spacing" textLength="108" x="319.5" y="104.8857">phone: number</text><ellipse cx="310.5" cy="117.8359" fill="none" rx="3" ry="3" style="stroke:#038048;stroke-width:1.0;"/><text fill="#000000" font-family="sans-serif" font-size="14" lengthAdjust="spacing" textLength="134" x="319.5" y="121.1826">contrasenya: String</text><ellipse cx="310.5" cy="134.1328" fill="none" rx="3" ry="3" style="stroke:#038048;stroke-width:1.0;"/><text fill="#000000" font-family="sans-serif" font-size="14" lengthAdjust="spacing" textLength="66" x="319.5" y="137.4795">rol: String</text><line style="stroke:#181818;stroke-width:0.5;" x1="300.5" x2="547.5" y1="144.7813" y2="144.7813"/><ellipse cx="310.5" cy="158.4297" fill="#84BE84" rx="3" ry="3" style="stroke:#038048;stroke-width:1.0;"/><text fill="#000000" font-family="sans-serif" font-size="14" lengthAdjust="spacing" textLength="67" x="319.5" y="161.7764">registrar()</text><ellipse cx="310.5" cy="174.7266" fill="#84BE84" rx="3" ry="3" style="stroke:#038048;stroke-width:1.0;"/><text fill="#000000" font-family="sans-serif" font-size="14" lengthAdjust="spacing" textLength="95" x="319.5" y="178.0732">iniciarSessio()</text><ellipse cx="310.5" cy="191.0234" fill="#84BE84" rx="3" ry="3" style="stroke:#038048;stroke-width:1.0;"/><text fill="#000000" font-family="sans-serif" font-size="14" lengthAdjust="spacing" textLength="167" x="319.5" y="194.3701">gestionarUsuaris() : void</text><ellipse cx="310.5" cy="207.3203" fill="#84BE84" rx="3" ry="3" style="stroke:#038048;stroke-width:1.0;"/><text fill="#000000" font-family="sans-serif" font-size="14" lengthAdjust="spacing" textLength="223" x="319.5" y="210.667">gestionarEsdeveniments() : void</text><ellipse cx="310.5" cy="223.6172" fill="#84BE84" rx="3" ry="3" style="stroke:#038048;stroke-width:1.0;"/><text fill="#000000" font-family="sans-serif" font-size="14" lengthAdjust="spacing" textLength="176" x="319.5" y="226.9639">gestionarTasques() : void</text></g><!--MD5=[ef20fcc8ec15cb45072ff8d10ba55b63]
class Esdeveniment--><g id="elem_Esdeveniment"><rect codeLine="15" fill="#F1F1F1" height="145.7813" id="Esdeveniment" rx="2.5" ry="2.5" style="stroke:#181818;stroke-width:0.5;" width="174" x="7" y="319"/><ellipse cx="41.35" cy="335" fill="#ADD1B2" rx="11" ry="11" style="stroke:#181818;stroke-width:1.0;"/><path d="M44.3188,340.6406 Q43.7406,340.9375 43.1,341.0781 Q42.4594,341.2344 41.7563,341.2344 Q39.2563,341.2344 37.9281,339.5938 Q36.6156,337.9375 36.6156,334.8125 Q36.6156,331.6875 37.9281,330.0313 Q39.2563,328.375 41.7563,328.375 Q42.4594,328.375 43.1,328.5313 Q43.7563,328.6875 44.3188,328.9844 L44.3188,331.7031 Q43.6938,331.125 43.1,330.8594 Q42.5063,330.5781 41.8813,330.5781 Q40.5375,330.5781 39.85,331.6563 Q39.1625,332.7188 39.1625,334.8125 Q39.1625,336.9063 39.85,337.9844 Q40.5375,339.0469 41.8813,339.0469 Q42.5063,339.0469 43.1,338.7813 Q43.6938,338.5 44.3188,337.9219 L44.3188,340.6406 Z " fill="#000000"/><text fill="#000000" font-family="sans-serif" font-size="14" lengthAdjust="spacing" textLength="99" x="59.65" y="339.8467">Esdeveniment</text><line style="stroke:#181818;stroke-width:0.5;" x1="8" x2="180" y1="351" y2="351"/><ellipse cx="18" cy="364.6484" fill="none" rx="3" ry="3" style="stroke:#038048;stroke-width:1.0;"/><text fill="#000000" font-family="sans-serif" font-size="14" lengthAdjust="spacing" textLength="61" x="27" y="367.9951">id: String</text><ellipse cx="18" cy="380.9453" fill="none" rx="3" ry="3" style="stroke:#038048;stroke-width:1.0;"/><text fill="#000000" font-family="sans-serif" font-size="14" lengthAdjust="spacing" textLength="74" x="27" y="384.292">titol: String</text><ellipse cx="18" cy="397.2422" fill="none" rx="3" ry="3" style="stroke:#038048;stroke-width:1.0;"/><text fill="#000000" font-family="sans-serif" font-size="14" lengthAdjust="spacing" textLength="72" x="27" y="400.5889">data: Date</text><ellipse cx="18" cy="413.5391" fill="none" rx="3" ry="3" style="stroke:#038048;stroke-width:1.0;"/><text fill="#000000" font-family="sans-serif" font-size="14" lengthAdjust="spacing" textLength="106" x="27" y="416.8857">ubicacio: String</text><line style="stroke:#181818;stroke-width:0.5;" x1="8" x2="180" y1="424.1875" y2="424.1875"/><ellipse cx="18" cy="437.8359" fill="#84BE84" rx="3" ry="3" style="stroke:#038048;stroke-width:1.0;"/><text fill="#000000" font-family="sans-serif" font-size="14" lengthAdjust="spacing" textLength="144" x="27" y="441.1826">crearEsdeveniment()</text><ellipse cx="18" cy="454.1328" fill="#84BE84" rx="3" ry="3" style="stroke:#038048;stroke-width:1.0;"/><text fill="#000000" font-family="sans-serif" font-size="14" lengthAdjust="spacing" textLength="148" x="27" y="457.4795">editarEsdeveniment()</text></g><!--MD5=[898b99e410f076f6ccf58fb5f0c5768a]
class Tasca--><g id="elem_Tasca"><rect codeLine="24" fill="#F1F1F1" height="129.4844" id="Tasca" rx="2.5" ry="2.5" style="stroke:#181818;stroke-width:0.5;" width="173" x="147.5" y="558.5"/><ellipse cx="209.25" cy="574.5" fill="#ADD1B2" rx="11" ry="11" style="stroke:#181818;stroke-width:1.0;"/><path d="M212.2188,580.1406 Q211.6406,580.4375 211,580.5781 Q210.3594,580.7344 209.6563,580.7344 Q207.1563,580.7344 205.8281,579.0938 Q204.5156,577.4375 204.5156,574.3125 Q204.5156,571.1875 205.8281,569.5313 Q207.1563,567.875 209.6563,567.875 Q210.3594,567.875 211,568.0313 Q211.6563,568.1875 212.2188,568.4844 L212.2188,571.2031 Q211.5938,570.625 211,570.3594 Q210.4063,570.0781 209.7813,570.0781 Q208.4375,570.0781 207.75,571.1563 Q207.0625,572.2188 207.0625,574.3125 Q207.0625,576.4063 207.75,577.4844 Q208.4375,578.5469 209.7813,578.5469 Q210.4063,578.5469 211,578.2813 Q211.5938,578 212.2188,577.4219 L212.2188,580.1406 Z " fill="#000000"/><text fill="#000000" font-family="sans-serif" font-size="14" lengthAdjust="spacing" textLength="41" x="229.75" y="579.3467">Tasca</text><line style="stroke:#181818;stroke-width:0.5;" x1="148.5" x2="319.5" y1="590.5" y2="590.5"/><ellipse cx="158.5" cy="604.1484" fill="none" rx="3" ry="3" style="stroke:#038048;stroke-width:1.0;"/><text fill="#000000" font-family="sans-serif" font-size="14" lengthAdjust="spacing" textLength="61" x="167.5" y="607.4951">id: String</text><ellipse cx="158.5" cy="620.4453" fill="none" rx="3" ry="3" style="stroke:#038048;stroke-width:1.0;"/><text fill="#000000" font-family="sans-serif" font-size="14" lengthAdjust="spacing" textLength="120" x="167.5" y="623.792">descripcio: String</text><ellipse cx="158.5" cy="636.7422" fill="none" rx="3" ry="3" style="stroke:#038048;stroke-width:1.0;"/><text fill="#000000" font-family="sans-serif" font-size="14" lengthAdjust="spacing" textLength="147" x="167.5" y="640.0889">dataFinalitzacio: Date</text><line style="stroke:#181818;stroke-width:0.5;" x1="148.5" x2="319.5" y1="647.3906" y2="647.3906"/><ellipse cx="158.5" cy="661.0391" fill="#84BE84" rx="3" ry="3" style="stroke:#038048;stroke-width:1.0;"/><text fill="#000000" font-family="sans-serif" font-size="14" lengthAdjust="spacing" textLength="89" x="167.5" y="664.3857">afegirTasca()</text><ellipse cx="158.5" cy="677.3359" fill="#84BE84" rx="3" ry="3" style="stroke:#038048;stroke-width:1.0;"/><text fill="#000000" font-family="sans-serif" font-size="14" lengthAdjust="spacing" textLength="120" x="167.5" y="680.6826">completarTasca()</text></g><!--MD5=[b0be8b697f9770f76b90c78556352e45]
class Notificacio--><g id="elem_Notificacio"><rect codeLine="32" fill="#F1F1F1" height="113.1875" id="Notificacio" rx="2.5" ry="2.5" style="stroke:#181818;stroke-width:0.5;" width="147" x="408.5" y="335.5"/><ellipse cx="443.75" cy="351.5" fill="#ADD1B2" rx="11" ry="11" style="stroke:#181818;stroke-width:1.0;"/><path d="M446.7188,357.1406 Q446.1406,357.4375 445.5,357.5781 Q444.8594,357.7344 444.1563,357.7344 Q441.6563,357.7344 440.3281,356.0938 Q439.0156,354.4375 439.0156,351.3125 Q439.0156,348.1875 440.3281,346.5313 Q441.6563,344.875 444.1563,344.875 Q444.8594,344.875 445.5,345.0313 Q446.1563,345.1875 446.7188,345.4844 L446.7188,348.2031 Q446.0938,347.625 445.5,347.3594 Q444.9063,347.0781 444.2813,347.0781 Q442.9375,347.0781 442.25,348.1563 Q441.5625,349.2188 441.5625,351.3125 Q441.5625,353.4063 442.25,354.4844 Q442.9375,355.5469 444.2813,355.5469 Q444.9063,355.5469 445.5,355.2813 Q446.0938,355 446.7188,354.4219 L446.7188,357.1406 Z " fill="#000000"/><text fill="#000000" font-family="sans-serif" font-size="14" lengthAdjust="spacing" textLength="70" x="462.25" y="356.3467">Notificacio</text><line style="stroke:#181818;stroke-width:0.5;" x1="409.5" x2="554.5" y1="367.5" y2="367.5"/><ellipse cx="419.5" cy="381.1484" fill="none" rx="3" ry="3" style="stroke:#038048;stroke-width:1.0;"/><text fill="#000000" font-family="sans-serif" font-size="14" lengthAdjust="spacing" textLength="61" x="428.5" y="384.4951">id: String</text><ellipse cx="419.5" cy="397.4453" fill="none" rx="3" ry="3" style="stroke:#038048;stroke-width:1.0;"/><text fill="#000000" font-family="sans-serif" font-size="14" lengthAdjust="spacing" textLength="83" x="428.5" y="400.792">tipus: String</text><ellipse cx="419.5" cy="413.7422" fill="none" rx="3" ry="3" style="stroke:#038048;stroke-width:1.0;"/><text fill="#000000" font-family="sans-serif" font-size="14" lengthAdjust="spacing" textLength="112" x="428.5" y="417.0889">missatge: String</text><line style="stroke:#181818;stroke-width:0.5;" x1="409.5" x2="554.5" y1="424.3906" y2="424.3906"/><ellipse cx="419.5" cy="438.0391" fill="#84BE84" rx="3" ry="3" style="stroke:#038048;stroke-width:1.0;"/><text fill="#000000" font-family="sans-serif" font-size="14" lengthAdjust="spacing" textLength="121" x="428.5" y="441.3857">enviarNotificacio()</text></g><!--MD5=[0002ec5af014697d4b6bbc794aa9f1a3]
class XarxaSocial--><g id="elem_XarxaSocial"><rect codeLine="39" fill="#F1F1F1" height="162.0781" id="XarxaSocial" rx="2.5" ry="2.5" style="stroke:#181818;stroke-width:0.5;" width="445" x="590.5" y="311"/><ellipse cx="770.25" cy="327" fill="#ADD1B2" rx="11" ry="11" style="stroke:#181818;stroke-width:1.0;"/><path d="M773.2188,332.6406 Q772.6406,332.9375 772,333.0781 Q771.3594,333.2344 770.6563,333.2344 Q768.1563,333.2344 766.8281,331.5938 Q765.5156,329.9375 765.5156,326.8125 Q765.5156,323.6875 766.8281,322.0313 Q768.1563,320.375 770.6563,320.375 Q771.3594,320.375 772,320.5313 Q772.6563,320.6875 773.2188,320.9844 L773.2188,323.7031 Q772.5938,323.125 772,322.8594 Q771.4063,322.5781 770.7813,322.5781 Q769.4375,322.5781 768.75,323.6563 Q768.0625,324.7188 768.0625,326.8125 Q768.0625,328.9063 768.75,329.9844 Q769.4375,331.0469 770.7813,331.0469 Q771.4063,331.0469 772,330.7813 Q772.5938,330.5 773.2188,329.9219 L773.2188,332.6406 Z " fill="#000000"/><text fill="#000000" font-family="sans-serif" font-size="14" lengthAdjust="spacing" textLength="77" x="790.75" y="331.8467">XarxaSocial</text><line style="stroke:#181818;stroke-width:0.5;" x1="591.5" x2="1034.5" y1="343" y2="343"/><ellipse cx="601.5" cy="356.6484" fill="none" rx="3" ry="3" style="stroke:#038048;stroke-width:1.0;"/><text fill="#000000" font-family="sans-serif" font-size="14" lengthAdjust="spacing" textLength="61" x="610.5" y="359.9951">id: String</text><ellipse cx="601.5" cy="372.9453" fill="none" rx="3" ry="3" style="stroke:#038048;stroke-width:1.0;"/><text fill="#000000" font-family="sans-serif" font-size="14" lengthAdjust="spacing" textLength="139" x="610.5" y="376.292">amics: List&lt;Usuari&gt;</text><line style="stroke:#181818;stroke-width:0.5;" x1="591.5" x2="1034.5" y1="383.5938" y2="383.5938"/><ellipse cx="601.5" cy="397.2422" fill="#84BE84" rx="3" ry="3" style="stroke:#038048;stroke-width:1.0;"/><text fill="#000000" font-family="sans-serif" font-size="14" lengthAdjust="spacing" textLength="81" x="610.5" y="400.5889">afegirAmic()</text><ellipse cx="601.5" cy="413.5391" fill="#84BE84" rx="3" ry="3" style="stroke:#038048;stroke-width:1.0;"/><text fill="#000000" font-family="sans-serif" font-size="14" lengthAdjust="spacing" textLength="96" x="610.5" y="416.8857">eliminarAmic()</text><ellipse cx="601.5" cy="429.8359" fill="#84BE84" rx="3" ry="3" style="stroke:#038048;stroke-width:1.0;"/><text fill="#000000" font-family="sans-serif" font-size="14" lengthAdjust="spacing" textLength="354" x="610.5" y="433.1826">enviarMissatge(amic: Usuari, missatge: String): void</text><ellipse cx="601.5" cy="446.1328" fill="#84BE84" rx="3" ry="3" style="stroke:#038048;stroke-width:1.0;"/><text fill="#000000" font-family="sans-serif" font-size="14" lengthAdjust="spacing" textLength="419" x="610.5" y="449.4795">ferInvitacio(amic: Usuari, esdeveniment: Esdeveniment): void</text><ellipse cx="601.5" cy="462.4297" fill="#84BE84" rx="3" ry="3" style="stroke:#038048;stroke-width:1.0;"/><text fill="#000000" font-family="sans-serif" font-size="14" lengthAdjust="spacing" textLength="319" x="610.5" y="465.7764">compartirExperiencia(experiencia: String): void</text></g><!--MD5=[e47ee5f63a5422d98d9c8c26f01fc257]
class Recordatori--><g id="elem_Recordatori"><rect codeLine="49" fill="#F1F1F1" height="145.7813" id="Recordatori" rx="2.5" ry="2.5" style="stroke:#181818;stroke-width:0.5;" width="206" x="917" y="550"/><ellipse cx="975.75" cy="566" fill="#ADD1B2" rx="11" ry="11" style="stroke:#181818;stroke-width:1.0;"/><path d="M978.7188,571.6406 Q978.1406,571.9375 977.5,572.0781 Q976.8594,572.2344 976.1563,572.2344 Q973.6563,572.2344 972.3281,570.5938 Q971.0156,568.9375 971.0156,565.8125 Q971.0156,562.6875 972.3281,561.0313 Q973.6563,559.375 976.1563,559.375 Q976.8594,559.375 977.5,559.5313 Q978.1563,559.6875 978.7188,559.9844 L978.7188,562.7031 Q978.0938,562.125 977.5,561.8594 Q976.9063,561.5781 976.2813,561.5781 Q974.9375,561.5781 974.25,562.6563 Q973.5625,563.7188 973.5625,565.8125 Q973.5625,567.9063 974.25,568.9844 Q974.9375,570.0469 976.2813,570.0469 Q976.9063,570.0469 977.5,569.7813 Q978.0938,569.5 978.7188,568.9219 L978.7188,571.6406 Z " fill="#000000"/><text fill="#000000" font-family="sans-serif" font-size="14" lengthAdjust="spacing" textLength="80" x="996.25" y="570.8467">Recordatori</text><line style="stroke:#181818;stroke-width:0.5;" x1="918" x2="1122" y1="582" y2="582"/><ellipse cx="928" cy="595.6484" fill="none" rx="3" ry="3" style="stroke:#038048;stroke-width:1.0;"/><text fill="#000000" font-family="sans-serif" font-size="14" lengthAdjust="spacing" textLength="61" x="937" y="598.9951">id: String</text><ellipse cx="928" cy="611.9453" fill="none" rx="3" ry="3" style="stroke:#038048;stroke-width:1.0;"/><text fill="#000000" font-family="sans-serif" font-size="14" lengthAdjust="spacing" textLength="112" x="937" y="615.292">missatge: String</text><ellipse cx="928" cy="628.2422" fill="none" rx="3" ry="3" style="stroke:#038048;stroke-width:1.0;"/><text fill="#000000" font-family="sans-serif" font-size="14" lengthAdjust="spacing" textLength="72" x="937" y="631.5889">data: Date</text><ellipse cx="928" cy="644.5391" fill="none" rx="3" ry="3" style="stroke:#038048;stroke-width:1.0;"/><text fill="#000000" font-family="sans-serif" font-size="14" lengthAdjust="spacing" textLength="94" x="937" y="647.8857">usuari: Usuari</text><line style="stroke:#181818;stroke-width:0.5;" x1="918" x2="1122" y1="655.1875" y2="655.1875"/><ellipse cx="928" cy="668.8359" fill="#84BE84" rx="3" ry="3" style="stroke:#038048;stroke-width:1.0;"/><text fill="#000000" font-family="sans-serif" font-size="14" lengthAdjust="spacing" textLength="162" x="937" y="672.1826">crearRecordatori(): void</text><ellipse cx="928" cy="685.1328" fill="#84BE84" rx="3" ry="3" style="stroke:#038048;stroke-width:1.0;"/><text fill="#000000" font-family="sans-serif" font-size="14" lengthAdjust="spacing" textLength="180" x="937" y="688.4795">mostrarRecordatori(): void</text></g><!--MD5=[7d14e9e5eecc27ab16e1f1110947bf5b]
link Usuari to Esdeveniment--><g id="link_Usuari_Esdeveniment"><path codeLine="58" d="M299.22,149.97 C235.26,170.96 161.63,206.22 117,264 C104.95,279.61 98.46,299.49 95.14,318.87 " fill="none" id="Usuari-Esdeveniment" style="stroke:#181818;stroke-width:1.0;"/><text fill="#000000" font-family="sans-serif" font-size="13" lengthAdjust="spacing" textLength="8" x="283.3725" y="148.3716">1</text><text fill="#000000" font-family="sans-serif" font-size="13" lengthAdjust="spacing" textLength="7" x="87.9077" y="308.0172">*</text></g><!--MD5=[7d14e9e5eecc27ab16e1f1110947bf5b]
link Usuari to Esdeveniment--><g id="link_Usuari_Esdeveniment"><path codeLine="65" d="M299.29,165.45 C248.18,188.43 191.61,220.91 151,264 C136.41,279.48 125.12,299.32 116.58,318.7 " fill="none" id="Usuari-Esdeveniment-1" style="stroke:#181818;stroke-width:1.0;"/><text fill="#000000" font-family="sans-serif" font-size="13" lengthAdjust="spacing" textLength="55" x="152" y="277.0669">participa</text><text fill="#000000" font-family="sans-serif" font-size="13" lengthAdjust="spacing" textLength="7" x="284.4772" y="164.795">*</text><text fill="#000000" font-family="sans-serif" font-size="13" lengthAdjust="spacing" textLength="7" x="111.4582" y="307.8304">*</text></g><!--MD5=[56fd01046a8322cb74d7b23335036c29]
link Usuari to Tasca--><g id="link_Usuari_Tasca"><path codeLine="59" d="M315.89,234.41 C308.72,244.09 301.98,254.01 296,264 C241.08,355.73 231.71,482.94 231.64,558.42 " fill="none" id="Usuari-Tasca" style="stroke:#181818;stroke-width:1.0;"/><text fill="#000000" font-family="sans-serif" font-size="13" lengthAdjust="spacing" textLength="8" x="300.708" y="254.2505">1</text><text fill="#000000" font-family="sans-serif" font-size="13" lengthAdjust="spacing" textLength="7" x="223.9991" y="547.5839">*</text></g><!--MD5=[56fd01046a8322cb74d7b23335036c29]
link Usuari to Tasca--><g id="link_Usuari_Tasca"><path codeLine="66" d="M372.15,234.04 C361.11,259.19 349.83,285.86 340,311 C306.96,395.47 274.07,494.98 253.89,558.27 " fill="none" id="Usuari-Tasca-1" style="stroke:#181818;stroke-width:1.0;"/><text fill="#000000" font-family="sans-serif" font-size="13" lengthAdjust="spacing" textLength="49" x="341" y="396.5669">assigna</text><text fill="#000000" font-family="sans-serif" font-size="13" lengthAdjust="spacing" textLength="7" x="361.4312" y="254.2348">*</text><text fill="#000000" font-family="sans-serif" font-size="13" lengthAdjust="spacing" textLength="7" x="248.6827" y="547.4175">*</text></g><!--MD5=[df2c659397c1adc0491fd49b166238d7]
link Usuari to Notificacio--><g id="link_Usuari_Notificacio"><path codeLine="60" d="M437,234.37 C439.56,250.11 442.54,266.02 446,281 C450.13,298.92 455.91,318.08 461.63,335.3 " fill="none" id="Usuari-Notificacio" style="stroke:#181818;stroke-width:1.0;"/><text fill="#000000" font-family="sans-serif" font-size="13" lengthAdjust="spacing" textLength="8" x="429.5766" y="254.2079">1</text><text fill="#000000" font-family="sans-serif" font-size="13" lengthAdjust="spacing" textLength="7" x="451.7208" y="324.5392">*</text></g><!--MD5=[df2c659397c1adc0491fd49b166238d7]
link Usuari to Notificacio--><g id="link_Usuari_Notificacio"><path codeLine="67" d="M448.26,234.23 C455.77,269.14 463.72,306.07 470.02,335.31 " fill="none" id="Usuari-Notificacio-1" style="stroke:#181818;stroke-width:1.0;"/><text fill="#000000" font-family="sans-serif" font-size="13" lengthAdjust="spacing" textLength="21" x="460" y="277.0669">rep</text><text fill="#000000" font-family="sans-serif" font-size="13" lengthAdjust="spacing" textLength="7" x="442.6548" y="254.4376">*</text><text fill="#000000" font-family="sans-serif" font-size="13" lengthAdjust="spacing" textLength="7" x="461.1334" y="324.5504">*</text></g><!--MD5=[679a68075ab06af8520ee4227d9c3795]
link Usuari to XarxaSocial--><g id="link_Usuari_XarxaSocial"><path codeLine="61" d="M548.68,226.12 C572.85,245.05 598.34,264.12 623,281 C637.78,291.12 653.54,301.23 669.42,310.99 " fill="none" id="Usuari-XarxaSocial" style="stroke:#181818;stroke-width:1.0;"/><text fill="#000000" font-family="sans-serif" font-size="13" lengthAdjust="spacing" textLength="64" x="624" y="277.0669">pertany_a</text><text fill="#000000" font-family="sans-serif" font-size="13" lengthAdjust="spacing" textLength="8" x="556.5214" y="229.162">1</text><text fill="#000000" font-family="sans-serif" font-size="13" lengthAdjust="spacing" textLength="7" x="648.8611" y="299.8999">*</text></g><!--MD5=[679a68075ab06af8520ee4227d9c3795]
link Usuari to XarxaSocial--><g id="link_Usuari_XarxaSocial"><path codeLine="68" d="M548.61,176.84 C595.9,200.53 648.94,230.48 693,264 C711.11,277.78 728.9,294.38 745.02,310.97 " fill="none" id="Usuari-XarxaSocial-1" style="stroke:#181818;stroke-width:1.0;"/><text fill="#000000" font-family="sans-serif" font-size="13" lengthAdjust="spacing" textLength="38" x="713" y="277.0669">amics</text><text fill="#000000" font-family="sans-serif" font-size="13" lengthAdjust="spacing" textLength="7" x="556.4167" y="176.879">*</text><text fill="#000000" font-family="sans-serif" font-size="13" lengthAdjust="spacing" textLength="7" x="731.4304" y="299.8781">*</text></g><!--MD5=[be6dedf7a752e3f5c0cb7a8e71239936]
link Esdeveniment to Tasca--><g id="link_Esdeveniment_Tasca"><path codeLine="63" d="M138.1,465.14 C156.38,495.03 177.39,529.41 195.09,558.35 " fill="none" id="Esdeveniment-Tasca" style="stroke:#181818;stroke-width:1.0;"/><text fill="#000000" font-family="sans-serif" font-size="13" lengthAdjust="spacing" textLength="23" x="118.2072" y="484.9096">0..*</text><text fill="#000000" font-family="sans-serif" font-size="13" lengthAdjust="spacing" textLength="23" x="166.5764" y="547.5063">0..*</text></g><!--MD5=[0679396227d276d9059744bf816f89a5]
link XarxaSocial to Recordatori--><g id="link_XarxaSocial_Recordatori"><path codeLine="70" d="M885.4,473.09 C908.02,498.11 932.82,525.55 954.9,549.98 " fill="none" id="XarxaSocial-Recordatori" style="stroke:#181818;stroke-width:1.0;"/><text fill="#000000" font-family="sans-serif" font-size="13" lengthAdjust="spacing" textLength="28" x="923" y="516.0669">crea</text><text fill="#000000" font-family="sans-serif" font-size="13" lengthAdjust="spacing" textLength="8" x="883.4919" y="493.0494">1</text><text fill="#000000" font-family="sans-serif" font-size="13" lengthAdjust="spacing" textLength="7" x="940.8256" y="538.7614">*</text></g><!--MD5=[dd81f26508f87f00785e061642e1e98d]
link Usuari to Recordatori--><g id="link_Usuari_Recordatori"><path codeLine="71" d="M548.83,141.23 C714.37,170.24 992.71,229.87 1053,311 C1104.01,379.64 1079.76,481.54 1053.55,549.79 " fill="none" id="Usuari-Recordatori" style="stroke:#181818;stroke-width:1.0;"/><text fill="#000000" font-family="sans-serif" font-size="13" lengthAdjust="spacing" textLength="21" x="1083" y="396.5669">rep</text><text fill="#000000" font-family="sans-serif" font-size="13" lengthAdjust="spacing" textLength="7" x="556.6501" y="139.0991">*</text><text fill="#000000" font-family="sans-serif" font-size="13" lengthAdjust="spacing" textLength="7" x="1049.508" y="538.9293">*</text></g><!--MD5=[01288e1a02b003472fd37e8e19415bc6]
@startuml
class Usuari {
    +id: String
    +nom: String
    +email: String
    +phone: number
    +contrasenya: String
    +rol: String  
    +registrar()
    +iniciarSessio()
    +gestionarUsuaris() : void
    +gestionarEsdeveniments() : void
    +gestionarTasques() : void
}

class Esdeveniment {
    +id: String
    +titol: String
    +data: Date
    +ubicacio: String
    +crearEsdeveniment()
    +editarEsdeveniment()
}

class Tasca {
    +id: String
    +descripcio: String
    +dataFinalitzacio: Date
    +afegirTasca()
    +completarTasca()
}

class Notificacio {
    +id: String
    +tipus: String
    +missatge: String
    +enviarNotificacio()
}

class XarxaSocial {
    +id: String
    +amics: List<Usuari>
    +afegirAmic()
    +eliminarAmic()
    +enviarMissatge(amic: Usuari, missatge: String): void
    +ferInvitacio(amic: Usuari, esdeveniment: Esdeveniment): void
    +compartirExperiencia(experiencia: String): void  
}

class Recordatori {
    +id: String
    +missatge: String
    +data: Date
    +usuari: Usuari
    +crearRecordatori(): void
    +mostrarRecordatori(): void
}

Usuari "1" - - "*" Esdeveniment
Usuari "1" - - "*" Tasca
Usuari "1" - - "*" Notificacio
Usuari "1" - - "*" XarxaSocial : pertany_a

Esdeveniment "0..*" - - "0..*" Tasca

Usuari "*" - - "*" Esdeveniment : participa
Usuari "*" - - "*" Tasca : assigna
Usuari "*" - - "*" Notificacio : rep
Usuari "*" - - "*" XarxaSocial : amics

XarxaSocial "1" - - "*" Recordatori : crea
Usuari "*" - - "*" Recordatori : rep
@enduml

PlantUML version 1.2022.7(Mon Aug 22 17:01:30 UTC 2022)
(GPL source distribution)
Java Runtime: OpenJDK Runtime Environment
JVM: OpenJDK 64-Bit Server VM
Default Encoding: UTF-8
Language: en
Country: null
--></g></svg>